<mxfile host="app.diagrams.net" agent="Mozilla/5.0 (Windows NT 10.0; Win64; x64) AppleWebKit/537.36 (KHTML, like Gecko) Chrome/129.0.0.0 Safari/537.36" version="24.7.17">
  <diagram name="Página-1" id="FA7tsEo-P84ghZjffCtK">
    <mxGraphModel dx="1834" dy="728" grid="1" gridSize="10" guides="1" tooltips="1" connect="1" arrows="1" fold="1" page="0" pageScale="1" pageWidth="827" pageHeight="1169" math="0" shadow="0">
      <root>
        <mxCell id="0" />
        <mxCell id="1" parent="0" />
        <mxCell id="u_yYj3u7olqI98gE9NBk-2" value="Inicio!" style="ellipse;whiteSpace=wrap;html=1;aspect=fixed;" parent="1" vertex="1">
          <mxGeometry x="-30" y="10" width="80" height="80" as="geometry" />
        </mxCell>
        <mxCell id="u_yYj3u7olqI98gE9NBk-6" value="Processamento de dados" style="rounded=0;whiteSpace=wrap;html=1;" parent="1" vertex="1">
          <mxGeometry x="270" y="20" width="110" height="50" as="geometry" />
        </mxCell>
        <mxCell id="u_yYj3u7olqI98gE9NBk-8" value="Saída de dados&lt;div&gt;impressão&lt;/div&gt;" style="shape=document;whiteSpace=wrap;html=1;boundedLbl=1;" parent="1" vertex="1">
          <mxGeometry x="620" y="20" width="110" height="60" as="geometry" />
        </mxCell>
        <mxCell id="u_yYj3u7olqI98gE9NBk-13" value="Entrada de dados" style="shape=parallelogram;perimeter=parallelogramPerimeter;whiteSpace=wrap;html=1;fixedSize=1;" parent="1" vertex="1">
          <mxGeometry x="110" y="20" width="120" height="50" as="geometry" />
        </mxCell>
        <mxCell id="ewO4qt-HssFdieLYnpRI-35" value="" style="edgeStyle=orthogonalEdgeStyle;rounded=0;orthogonalLoop=1;jettySize=auto;html=1;" edge="1" parent="1" source="ewO4qt-HssFdieLYnpRI-1" target="ewO4qt-HssFdieLYnpRI-34">
          <mxGeometry relative="1" as="geometry" />
        </mxCell>
        <mxCell id="ewO4qt-HssFdieLYnpRI-1" value="Inicio!" style="ellipse;whiteSpace=wrap;html=1;aspect=fixed;" vertex="1" parent="1">
          <mxGeometry x="-40" y="150" width="80" height="80" as="geometry" />
        </mxCell>
        <mxCell id="ewO4qt-HssFdieLYnpRI-17" value="Decisões&lt;div&gt;Validar&lt;/div&gt;" style="rhombus;whiteSpace=wrap;html=1;" vertex="1" parent="1">
          <mxGeometry x="445" y="5" width="80" height="80" as="geometry" />
        </mxCell>
        <mxCell id="ewO4qt-HssFdieLYnpRI-25" value="" style="endArrow=none;html=1;rounded=0;strokeWidth=6;" edge="1" parent="1">
          <mxGeometry width="50" height="50" relative="1" as="geometry">
            <mxPoint x="-280" y="880" as="sourcePoint" />
            <mxPoint x="1080" y="880" as="targetPoint" />
          </mxGeometry>
        </mxCell>
        <mxCell id="ewO4qt-HssFdieLYnpRI-37" value="" style="edgeStyle=orthogonalEdgeStyle;rounded=0;orthogonalLoop=1;jettySize=auto;html=1;" edge="1" parent="1" source="ewO4qt-HssFdieLYnpRI-34" target="ewO4qt-HssFdieLYnpRI-36">
          <mxGeometry relative="1" as="geometry" />
        </mxCell>
        <mxCell id="ewO4qt-HssFdieLYnpRI-34" value="real num&lt;div&gt;&lt;br&gt;&lt;/div&gt;" style="shape=parallelogram;perimeter=parallelogramPerimeter;whiteSpace=wrap;html=1;fixedSize=1;" vertex="1" parent="1">
          <mxGeometry x="-60" y="320" width="120" height="60" as="geometry" />
        </mxCell>
        <mxCell id="ewO4qt-HssFdieLYnpRI-41" value="" style="edgeStyle=orthogonalEdgeStyle;rounded=0;orthogonalLoop=1;jettySize=auto;html=1;" edge="1" parent="1" source="ewO4qt-HssFdieLYnpRI-36" target="ewO4qt-HssFdieLYnpRI-40">
          <mxGeometry relative="1" as="geometry" />
        </mxCell>
        <mxCell id="ewO4qt-HssFdieLYnpRI-36" value="Digite o numero entre 01 e 10:" style="shape=parallelogram;perimeter=parallelogramPerimeter;whiteSpace=wrap;html=1;fixedSize=1;" vertex="1" parent="1">
          <mxGeometry x="-100" y="470" width="200" height="110" as="geometry" />
        </mxCell>
        <mxCell id="ewO4qt-HssFdieLYnpRI-43" value="" style="edgeStyle=orthogonalEdgeStyle;rounded=0;orthogonalLoop=1;jettySize=auto;html=1;" edge="1" parent="1" source="ewO4qt-HssFdieLYnpRI-40" target="ewO4qt-HssFdieLYnpRI-42">
          <mxGeometry relative="1" as="geometry" />
        </mxCell>
        <mxCell id="ewO4qt-HssFdieLYnpRI-40" value="leia (num)" style="shape=parallelogram;perimeter=parallelogramPerimeter;whiteSpace=wrap;html=1;fixedSize=1;" vertex="1" parent="1">
          <mxGeometry x="220" y="495" width="120" height="60" as="geometry" />
        </mxCell>
        <mxCell id="ewO4qt-HssFdieLYnpRI-47" value="" style="edgeStyle=orthogonalEdgeStyle;rounded=0;orthogonalLoop=1;jettySize=auto;html=1;" edge="1" parent="1" source="ewO4qt-HssFdieLYnpRI-42" target="ewO4qt-HssFdieLYnpRI-46">
          <mxGeometry relative="1" as="geometry" />
        </mxCell>
        <mxCell id="ewO4qt-HssFdieLYnpRI-49" value="" style="edgeStyle=orthogonalEdgeStyle;rounded=0;orthogonalLoop=1;jettySize=auto;html=1;" edge="1" parent="1" source="ewO4qt-HssFdieLYnpRI-42" target="ewO4qt-HssFdieLYnpRI-48">
          <mxGeometry relative="1" as="geometry" />
        </mxCell>
        <mxCell id="ewO4qt-HssFdieLYnpRI-42" value="num=&amp;gt;1&lt;div&gt;&lt;span style=&quot;background-color: initial;&quot;&gt;e&lt;/span&gt;&lt;/div&gt;&lt;div&gt;&lt;span style=&quot;background-color: initial;&quot;&gt;num=&amp;lt;10&lt;/span&gt;&lt;/div&gt;" style="rhombus;whiteSpace=wrap;html=1;" vertex="1" parent="1">
          <mxGeometry x="440" y="467.5" width="120" height="115" as="geometry" />
        </mxCell>
        <mxCell id="ewO4qt-HssFdieLYnpRI-44" value="5" style="text;html=1;align=center;verticalAlign=middle;whiteSpace=wrap;rounded=0;" vertex="1" parent="1">
          <mxGeometry x="60" y="335" width="60" height="30" as="geometry" />
        </mxCell>
        <mxCell id="ewO4qt-HssFdieLYnpRI-45" value="5" style="text;html=1;align=center;verticalAlign=middle;whiteSpace=wrap;rounded=0;" vertex="1" parent="1">
          <mxGeometry x="520" y="465" width="60" height="30" as="geometry" />
        </mxCell>
        <mxCell id="ewO4qt-HssFdieLYnpRI-53" value="" style="edgeStyle=orthogonalEdgeStyle;rounded=0;orthogonalLoop=1;jettySize=auto;html=1;" edge="1" parent="1" source="ewO4qt-HssFdieLYnpRI-46">
          <mxGeometry relative="1" as="geometry">
            <mxPoint x="820" y="530" as="targetPoint" />
            <Array as="points">
              <mxPoint x="690" y="730" />
              <mxPoint x="690" y="740" />
              <mxPoint x="820" y="740" />
            </Array>
          </mxGeometry>
        </mxCell>
        <mxCell id="ewO4qt-HssFdieLYnpRI-46" value="&lt;br&gt;&lt;span style=&quot;color: rgb(0, 0, 0); font-family: Helvetica; font-size: 12px; font-style: normal; font-variant-ligatures: normal; font-variant-caps: normal; font-weight: 400; letter-spacing: normal; orphans: 2; text-align: center; text-indent: 0px; text-transform: none; widows: 2; word-spacing: 0px; -webkit-text-stroke-width: 0px; white-space: normal; background-color: rgb(255, 255, 255); text-decoration-thickness: initial; text-decoration-style: initial; text-decoration-color: initial; display: inline !important; float: none;&quot;&gt;&quot;O numero informado&quot; + num &quot; não esta no intervalo entre 01 e 10&quot;&lt;/span&gt;&lt;div&gt;&lt;br/&gt;&lt;/div&gt;" style="shape=document;whiteSpace=wrap;html=1;boundedLbl=1;" vertex="1" parent="1">
          <mxGeometry x="425" y="680" width="150" height="100" as="geometry" />
        </mxCell>
        <mxCell id="ewO4qt-HssFdieLYnpRI-55" value="" style="edgeStyle=orthogonalEdgeStyle;rounded=0;orthogonalLoop=1;jettySize=auto;html=1;" edge="1" parent="1" source="ewO4qt-HssFdieLYnpRI-48">
          <mxGeometry relative="1" as="geometry">
            <mxPoint x="820" y="460" as="targetPoint" />
          </mxGeometry>
        </mxCell>
        <mxCell id="ewO4qt-HssFdieLYnpRI-48" value="&quot;O numero informado&quot; + num &quot;esta no intervalo entre 01 e 10&quot;" style="shape=document;whiteSpace=wrap;html=1;boundedLbl=1;" vertex="1" parent="1">
          <mxGeometry x="440" y="290" width="120" height="80" as="geometry" />
        </mxCell>
        <mxCell id="ewO4qt-HssFdieLYnpRI-50" value="V" style="text;html=1;align=center;verticalAlign=middle;whiteSpace=wrap;rounded=0;" vertex="1" parent="1">
          <mxGeometry x="490" y="440" width="60" height="30" as="geometry" />
        </mxCell>
        <mxCell id="ewO4qt-HssFdieLYnpRI-51" value="F" style="text;html=1;align=center;verticalAlign=middle;whiteSpace=wrap;rounded=0;" vertex="1" parent="1">
          <mxGeometry x="490" y="580" width="60" height="30" as="geometry" />
        </mxCell>
        <mxCell id="ewO4qt-HssFdieLYnpRI-57" value="fim" style="ellipse;whiteSpace=wrap;html=1;aspect=fixed;" vertex="1" parent="1">
          <mxGeometry x="780" y="460" width="70" height="70" as="geometry" />
        </mxCell>
        <mxCell id="ewO4qt-HssFdieLYnpRI-58" value="&#xa;Desenvolva um algoritmo capaz de lê um valor X informado pelo usuário. Em&#xa;seguida, calcular a raiz quadrada e a potência do número informado&#xa;&#xa;" style="text;html=1;align=center;verticalAlign=middle;whiteSpace=wrap;rounded=0;fontStyle=1;fontSize=15;" vertex="1" parent="1">
          <mxGeometry x="140" y="940" width="550" height="100" as="geometry" />
        </mxCell>
        <mxCell id="ewO4qt-HssFdieLYnpRI-59" value="" style="edgeStyle=orthogonalEdgeStyle;rounded=0;orthogonalLoop=1;jettySize=auto;html=1;" edge="1" parent="1">
          <mxGeometry relative="1" as="geometry">
            <mxPoint x="89.5" y="1160" as="sourcePoint" />
            <mxPoint x="89.5" y="1250" as="targetPoint" />
          </mxGeometry>
        </mxCell>
        <mxCell id="ewO4qt-HssFdieLYnpRI-60" value="Inicio!" style="ellipse;whiteSpace=wrap;html=1;aspect=fixed;" vertex="1" parent="1">
          <mxGeometry x="50" y="1090" width="80" height="80" as="geometry" />
        </mxCell>
        <mxCell id="ewO4qt-HssFdieLYnpRI-61" value="" style="edgeStyle=orthogonalEdgeStyle;rounded=0;orthogonalLoop=1;jettySize=auto;html=1;" edge="1" parent="1">
          <mxGeometry relative="1" as="geometry">
            <mxPoint x="90" y="1300" as="sourcePoint" />
            <mxPoint x="90" y="1390" as="targetPoint" />
          </mxGeometry>
        </mxCell>
        <mxCell id="ewO4qt-HssFdieLYnpRI-62" value="Inteiro num&lt;div&gt;intero pot&lt;/div&gt;&lt;div&gt;inteiro ra&lt;/div&gt;" style="shape=parallelogram;perimeter=parallelogramPerimeter;whiteSpace=wrap;html=1;fixedSize=1;" vertex="1" parent="1">
          <mxGeometry x="20" y="1250" width="120" height="60" as="geometry" />
        </mxCell>
        <mxCell id="ewO4qt-HssFdieLYnpRI-63" value="" style="edgeStyle=orthogonalEdgeStyle;rounded=0;orthogonalLoop=1;jettySize=auto;html=1;" edge="1" target="ewO4qt-HssFdieLYnpRI-66" parent="1">
          <mxGeometry relative="1" as="geometry">
            <mxPoint x="180" y="1445" as="sourcePoint" />
          </mxGeometry>
        </mxCell>
        <mxCell id="ewO4qt-HssFdieLYnpRI-64" value="Digite o numero:" style="shape=parallelogram;perimeter=parallelogramPerimeter;whiteSpace=wrap;html=1;fixedSize=1;" vertex="1" parent="1">
          <mxGeometry x="-20" y="1400" width="200" height="110" as="geometry" />
        </mxCell>
        <mxCell id="ewO4qt-HssFdieLYnpRI-79" value="" style="edgeStyle=orthogonalEdgeStyle;rounded=0;orthogonalLoop=1;jettySize=auto;html=1;" edge="1" parent="1" source="ewO4qt-HssFdieLYnpRI-66" target="ewO4qt-HssFdieLYnpRI-78">
          <mxGeometry relative="1" as="geometry" />
        </mxCell>
        <mxCell id="ewO4qt-HssFdieLYnpRI-66" value="leia (num)" style="shape=parallelogram;perimeter=parallelogramPerimeter;whiteSpace=wrap;html=1;fixedSize=1;" vertex="1" parent="1">
          <mxGeometry x="310" y="1415" width="120" height="60" as="geometry" />
        </mxCell>
        <mxCell id="ewO4qt-HssFdieLYnpRI-70" value="5" style="text;html=1;align=center;verticalAlign=middle;whiteSpace=wrap;rounded=0;" vertex="1" parent="1">
          <mxGeometry x="150" y="1255" width="60" height="30" as="geometry" />
        </mxCell>
        <mxCell id="ewO4qt-HssFdieLYnpRI-77" value="fim" style="ellipse;whiteSpace=wrap;html=1;aspect=fixed;" vertex="1" parent="1">
          <mxGeometry x="860" y="1390" width="70" height="70" as="geometry" />
        </mxCell>
        <mxCell id="ewO4qt-HssFdieLYnpRI-81" value="" style="edgeStyle=orthogonalEdgeStyle;rounded=0;orthogonalLoop=1;jettySize=auto;html=1;" edge="1" parent="1" source="ewO4qt-HssFdieLYnpRI-78" target="ewO4qt-HssFdieLYnpRI-80">
          <mxGeometry relative="1" as="geometry" />
        </mxCell>
        <mxCell id="ewO4qt-HssFdieLYnpRI-78" value="pot: num * num" style="whiteSpace=wrap;html=1;" vertex="1" parent="1">
          <mxGeometry x="510" y="1415" width="120" height="60" as="geometry" />
        </mxCell>
        <mxCell id="ewO4qt-HssFdieLYnpRI-83" value="" style="edgeStyle=orthogonalEdgeStyle;rounded=0;orthogonalLoop=1;jettySize=auto;html=1;" edge="1" parent="1" source="ewO4qt-HssFdieLYnpRI-80" target="ewO4qt-HssFdieLYnpRI-82">
          <mxGeometry relative="1" as="geometry" />
        </mxCell>
        <mxCell id="ewO4qt-HssFdieLYnpRI-80" value="ra: raiz(num)" style="whiteSpace=wrap;html=1;" vertex="1" parent="1">
          <mxGeometry x="510" y="1555" width="120" height="60" as="geometry" />
        </mxCell>
        <mxCell id="ewO4qt-HssFdieLYnpRI-82" value="escreva(&quot;O numero digitado foi&quot; + num + &quot;Sua raiz e : + ra + &quot; e sua potencia e&quot; + pot)" style="shape=document;whiteSpace=wrap;html=1;boundedLbl=1;" vertex="1" parent="1">
          <mxGeometry x="510" y="1685" width="150" height="95" as="geometry" />
        </mxCell>
      </root>
    </mxGraphModel>
  </diagram>
</mxfile>
